<?xml version="1.0" encoding="UTF-8" standalone="no"?>
<!-- Created with Inkscape (http://www.inkscape.org/) -->

<svg
   width="135.46666mm"
   height="135.46677mm"
   viewBox="0 0 135.46666 135.46677"
   version="1.1"
   id="svg1"
   xml:space="preserve"
   xmlns:xlink="http://www.w3.org/1999/xlink"
   xmlns="http://www.w3.org/2000/svg"
   xmlns:svg="http://www.w3.org/2000/svg"><defs
     id="defs1"><linearGradient
       id="linearGradient2"><stop
         style="stop-color:#1a7fe8;stop-opacity:1;"
         offset="0"
         id="stop2" /><stop
         style="stop-color:#3e9df5;stop-opacity:1;"
         offset="1"
         id="stop3" /></linearGradient><linearGradient
       xlink:href="#linearGradient2"
       id="linearGradient3"
       x1="68.656822"
       y1="120.6419"
       x2="66.809784"
       y2="14.824723"
       gradientUnits="userSpaceOnUse"
       spreadMethod="pad"
       gradientTransform="matrix(1.280004,0,0,1.2800007,-18.965382,-18.965386)" /></defs><g
     id="layer1"
     transform="translate(0,5.3405763e-5)"><g
       id="g3"><rect
         style="fill:url(#linearGradient3);stroke-width:0.282223"
         id="rect1"
         width="135.46666"
         height="135.46677"
         x="-1.2434498e-14"
         y="-5.3405762e-05"
         rx="25" /><rect
         style="fill:#000000;fill-opacity:0;stroke:#ffffff;stroke-width:2.64584;stroke-linejoin:miter;stroke-dasharray:none;stroke-opacity:0.15"
         id="rect3"
         width="105.83333"
         height="105.83333"
         x="14.816666"
         y="14.816666"
         rx="19.999996" /><rect
         style="fill:#000000;fill-opacity:0;stroke:#ffffff;stroke-width:2.64583;stroke-linejoin:miter;stroke-dasharray:none;stroke-opacity:0.4"
         id="rect3-4"
         width="89.614128"
         height="89.614128"
         x="22.926266"
         y="22.926266"
         rx="16.273403" /><rect
         style="fill:#000000;fill-opacity:0;stroke:#ffffff;stroke-width:2.64583;stroke-linejoin:miter;stroke-dasharray:none;stroke-opacity:0.6"
         id="rect3-4-6"
         width="73.561821"
         height="73.561821"
         x="30.952419"
         y="30.952419"
         rx="13.358397" /><rect
         style="fill:#000000;fill-opacity:0;stroke:#ffffff;stroke-width:2.51354;stroke-linejoin:miter;stroke-dasharray:none;stroke-opacity:0.85"
         id="rect3-4-6-3"
         width="57.336227"
         height="57.336227"
         x="39.065216"
         y="39.065216"
         rx="10.411922" /><rect
         style="fill:#000000;fill-opacity:0;stroke:#ffffff;stroke-width:2.38125;stroke-linejoin:miter;stroke-dasharray:none;stroke-opacity:1"
         id="rect3-4-6-3-5"
         width="41.324192"
         height="41.324192"
         x="47.071236"
         y="47.071236"
         rx="7.5042305" /><path
         d="m 54.065345,79.295936 c 5.1e-5,0.147425 0.01626,0.290792 0.04729,0.430108 0.218691,0.969769 1.158478,1.701493 2.281474,1.701493 H 79.08061 c 0.963437,0 1.790922,-0.53831 2.145558,-1.302478 0.118212,-0.255627 0.18323,-0.535609 0.18323,-0.829088 V 56.265 c 0,-1.175336 -0.99268,-2.221969 -2.275265,-2.225442 0,0 -21.933876,-0.0051 -23.018504,0.01989 -1.312849,0.0303 -1.998081,1.286282 -2.058353,1.715173 z m 0.948685,0.0011 V 75.4492 h 2.368667 c 0.0015,0 0.0044,0.0014 0.0059,0.0014 h 20.699025 c 0.0015,0 0.0044,-0.0014 0.0059,-0.0014 h 2.368667 v 3.847844 c 0,0.173124 -0.03842,0.339485 -0.10787,0.489628 -0.209827,0.453099 -0.70042,0.772304 -1.270789,0.772304 H 56.394407 c -0.664938,0 -1.222029,-0.432809 -1.352044,-1.007648 -0.01773,-0.0825 -0.02808,-0.167715 -0.02808,-0.254277 z m 22.599119,-8.255915 c -0.653136,0.06222 -1.112669,0.239398 -1.517541,0.403066 -0.472848,0.19341 -0.882145,0.359785 -1.612109,0.359785 -0.712223,0 -1.050593,-0.160949 -1.440712,-0.347597 -0.18766,-0.09062 -0.39602,-0.188002 -0.647197,-0.269152 -0.48465,-2.320929 -2.720352,-4.038626 -5.332971,-4.038626 -2.869584,0 -5.220623,2.04909 -5.416949,4.633825 -0.1256,0.01352 -0.263021,0.02164 -0.416712,0.02164 -0.737341,0 -1.224979,-0.177181 -1.740687,-0.365187 -0.449205,-0.163657 -0.956023,-0.33678 -1.62395,-0.39898 l -0.0029,-13.430578 h 19.751815 z m -6.588857,-0.0257 c -0.04138,0.0014 -0.07684,0.0054 -0.09309,0.0095 -0.79204,0.03381 -1.241208,0.247511 -1.637228,0.435509 -0.39008,0.185298 -0.725538,0.344893 -1.442187,0.344893 -0.712223,0 -1.047642,-0.160949 -1.436286,-0.347597 -0.43589,-0.208288 -0.930905,-0.444997 -1.875126,-0.444997 -0.930906,0 -1.425921,0.233987 -1.826367,0.422006 l -0.0857,0.04058 c 0.342815,-1.958443 2.200219,-3.45977 4.431533,-3.45977 2.030297,0 3.790352,1.255145 4.323725,2.999919 -0.116733,-0.0041 -0.261546,-0.0054 -0.35907,-0.0014 v 0.0014 z M 57.861333,71.90538 c 0.49354,0.05545 0.876245,0.194764 1.275215,0.340839 0.549677,0.200172 1.171793,0.426057 2.090859,0.426057 0.297009,0 0.545251,-0.0284 0.766884,-0.06898 0.106391,0.02299 0.217215,0.02434 0.317694,-0.02164 0.09457,-0.04463 0.190618,-0.08792 0.291096,-0.131196 0.0089,-0.0041 0.01625,-0.0081 0.02512,-0.01217 0.0015,-0.0014 0.0044,-0.0014 0.0059,-0.0027 0.02512,-0.0081 0.04138,-0.01488 0.06058,-0.02299 0.01478,-0.0054 0.03399,-0.01217 0.04433,-0.01623 0.115258,-0.04734 0.221648,-0.09874 0.329515,-0.151483 l 0.08127,-0.03922 c 0.354636,-0.167715 0.68858,-0.32596 1.389001,-0.32596 0.712223,0 1.047643,0.16095 1.436286,0.347597 0.43589,0.208289 0.930906,0.444997 1.875127,0.444997 0.947172,0 1.442187,-0.23534 1.878077,-0.442261 0.354636,-0.167715 0.660512,-0.313787 1.309185,-0.344893 0.02364,-0.0041 0.04876,-0.0054 0.07388,-0.0054 0.286663,0.0014 0.5423,0.02029 0.753607,0.06763 0.286663,0.06492 0.495015,0.163657 0.735865,0.279972 0.437366,0.208289 0.933894,0.446347 1.879591,0.446347 0.932381,0 1.498323,-0.231282 1.997764,-0.434159 0.357591,-0.146075 0.679729,-0.277268 1.131886,-0.331369 v 2.676663 l -19.74879,-0.0027 z M 80.461964,56.264716 V 74.581879 H 78.560245 V 57.176038 c 0,-0.239398 -0.212782,-0.432809 -0.472849,-0.432809 H 57.388371 c -0.261545,0 -0.472848,0.194764 -0.472848,0.432809 v 17.405841 h -1.90172 V 56.359942 c 0,-0.696545 0.619129,-1.359824 1.380112,-1.359824 h 22.688014 c 0.760983,0 1.380111,0.568053 1.380111,1.264598 z"
         id="path1"
         style="fill:#ffffed;fill-opacity:1;stroke:#ffffff;stroke-width:0.410632;stroke-dasharray:none;stroke-opacity:1" /><path
         d="m 61.814041,60.633634 c 0.474324,0.132547 0.741767,0.595129 0.595487,1.029289 -0.01478,0.04193 -0.02069,0.08521 -0.02069,0.127138 0,0.185298 0.131512,0.35705 0.333948,0.413869 0.04581,0.01353 0.09309,0.01894 0.1389,0.01894 0.202439,0 0.390081,-0.119022 0.452156,-0.307024 0.07093,-0.209642 0.226082,-0.382776 0.438879,-0.485542 0.212782,-0.102794 0.455107,-0.12308 0.68563,-0.05951 0.249724,0.07033 0.514232,-0.05816 0.59106,-0.286734 0.07684,-0.228579 -0.06354,-0.470688 -0.31326,-0.541011 -0.471373,-0.132547 -0.970814,-0.08927 -1.406742,0.12308 -0.02955,0.01353 -0.05763,0.0284 -0.0857,0.04463 -0.212782,-0.419271 -0.611752,-0.757415 -1.131885,-0.903497 -0.248246,-0.06898 -0.514232,0.05816 -0.59106,0.286734 -0.07684,0.227225 0.06354,0.470688 0.31326,0.539661 z"
         id="path2"
         style="fill:#ffffed;fill-opacity:1;stroke:#ffffff;stroke-width:0.410632;stroke-dasharray:none;stroke-opacity:1" /><path
         d="m 71.834263,61.910247 c 0.474323,0.132547 0.740291,0.593744 0.595486,1.027938 -0.01478,0.04193 -0.02069,0.08521 -0.02069,0.127139 0,0.185297 0.131512,0.35705 0.333948,0.413869 0.04581,0.01352 0.09309,0.01894 0.1389,0.01894 0.202439,0 0.390081,-0.119022 0.452156,-0.307024 0.07093,-0.209642 0.226082,-0.381426 0.437366,-0.484192 0.212782,-0.102794 0.455107,-0.12308 0.68563,-0.05951 0.249724,0.07168 0.515707,-0.05816 0.59106,-0.286734 0.07684,-0.228579 -0.06354,-0.470688 -0.31326,-0.541011 -0.471373,-0.132547 -0.970814,-0.08927 -1.406742,0.121726 -0.02956,0.01353 -0.05763,0.02976 -0.0857,0.04463 -0.212782,-0.41927 -0.611752,-0.757415 -1.131885,-0.903497 -0.248246,-0.06762 -0.514232,0.05816 -0.591061,0.286734 -0.07536,0.227225 0.06502,0.470688 0.31474,0.541011 z"
         id="path3"
         style="fill:#ffffed;fill-opacity:1;stroke:#ffffff;stroke-width:0.410632;stroke-dasharray:none;stroke-opacity:1" /><path
         d="m 67.061144,66.331822 c 0.261545,0 0.472848,-0.194764 0.472848,-0.432809 v -0.432809 c 0,-0.239398 -0.212782,-0.432808 -0.472848,-0.432808 -0.261546,0 -0.472849,0.194764 -0.472849,0.432808 v 0.432809 c 0,0.239399 0.211303,0.432809 0.472849,0.432809 z"
         id="path4"
         style="fill:#ffffed;fill-opacity:1;stroke:#ffffff;stroke-width:0.410632;stroke-dasharray:none;stroke-opacity:1" /><path
         d="m 64.029241,66.093604 c -0.131513,-0.206938 -0.421138,-0.278621 -0.647197,-0.158245 -0.226082,0.119022 -0.304397,0.384126 -0.174364,0.592394 l 0.236424,0.374639 c 0.08718,0.139309 0.246767,0.216405 0.410773,0.216405 0.07979,0 0.162543,-0.01894 0.236424,-0.05816 0.226082,-0.119023 0.304397,-0.384127 0.174364,-0.592395 z"
         id="path5"
         style="fill:#ffffed;fill-opacity:1;stroke:#ffffff;stroke-width:0.410632;stroke-dasharray:none;stroke-opacity:1" /><path
         d="m 60.862671,68.992385 0.409297,0.216404 c 0.07388,0.03922 0.155155,0.05816 0.236424,0.05816 0.164018,0 0.322127,-0.07845 0.410773,-0.216404 0.130033,-0.208289 0.05319,-0.472039 -0.174364,-0.592394 l -0.409297,-0.216405 c -0.226082,-0.120376 -0.515707,-0.04869 -0.647197,0.158246 -0.128554,0.208288 -0.05172,0.472038 0.174364,0.592394 z"
         id="path6"
         style="fill:#ffffed;fill-opacity:1;stroke:#ffffff;stroke-width:0.410632;stroke-dasharray:none;stroke-opacity:1" /><path
         d="m 72.787146,68.241721 -0.409297,0.216404 c -0.226082,0.119023 -0.304397,0.384127 -0.174364,0.592395 0.08718,0.139309 0.246766,0.216404 0.410773,0.216404 0.07979,0 0.162542,-0.01894 0.236424,-0.05816 l 0.409297,-0.216405 c 0.226082,-0.119022 0.304397,-0.384126 0.174364,-0.592394 -0.132988,-0.206938 -0.422613,-0.278621 -0.647197,-0.158244 z"
         id="path7"
         style="fill:#ffffed;fill-opacity:1;stroke:#ffffff;stroke-width:0.410632;stroke-dasharray:none;stroke-opacity:1" /><path
         d="m 70.029874,67.059287 c 0.07388,0.03922 0.15663,0.05816 0.236424,0.05816 0.164018,0 0.322127,-0.07845 0.410773,-0.216404 l 0.236424,-0.374639 c 0.130033,-0.206938 0.0532,-0.472039 -0.172885,-0.592395 -0.226082,-0.120376 -0.515707,-0.04869 -0.647197,0.158246 l -0.236424,0.374639 c -0.130033,0.208289 -0.05319,0.473389 0.172885,0.592394 z"
         id="path8"
         style="fill:#ffffed;fill-opacity:1;stroke:#ffffff;stroke-width:0.410632;stroke-dasharray:none;stroke-opacity:1" /><path
         d="m 68.41765,79.071291 h 0.750656 c 0.261546,0 0.472849,-0.194764 0.472849,-0.432809 0,-0.239399 -0.212782,-0.432809 -0.472849,-0.432809 H 68.41765 c -0.261545,0 -0.472848,0.194764 -0.472848,0.432809 -0.0015,0.239399 0.211303,0.432809 0.472848,0.432809 z"
         id="path9"
         style="fill:#ffffed;fill-opacity:1;stroke:#ffffff;stroke-width:0.410632;stroke-dasharray:none;stroke-opacity:1" /><path
         d="m 71.457497,79.071291 h 4.913082 c 0.261546,0 0.472848,-0.194764 0.472848,-0.432809 0,-0.239399 -0.212781,-0.432809 -0.472848,-0.432809 h -4.913082 c -0.261546,0 -0.472848,0.194764 -0.472848,0.432809 0,0.239399 0.212782,0.432809 0.472848,0.432809 z"
         id="path10"
         style="fill:#ffffed;fill-opacity:1;stroke:#ffffff;stroke-width:0.410632;stroke-dasharray:none;stroke-opacity:1" /></g></g></svg>
